<svg xmlns="http://www.w3.org/2000/svg" viewBox="-5144.667 2183.333 16 12.997">
  <defs>
    <style>
      .cls-1 {
        fill: #fff;
      }
    </style>
  </defs>
  <g id="twitter-logo-silhouette" transform="translate(-5144.667 2183.333)">
    <g id="Group_283" data-name="Group 283" transform="translate(0)">
      <path id="Path_77" data-name="Path 77" class="cls-1" d="M16,58.979a6.555,6.555,0,0,1-1.885.517,3.3,3.3,0,0,0,1.443-1.815,6.617,6.617,0,0,1-2.086.8A3.285,3.285,0,0,0,7.88,61.47a9.318,9.318,0,0,1-6.765-3.429,3.286,3.286,0,0,0,1.016,4.381A3.282,3.282,0,0,1,.645,62.01v.041A3.286,3.286,0,0,0,3.277,65.27a3.324,3.324,0,0,1-.865.115,3.15,3.15,0,0,1-.618-.061A3.284,3.284,0,0,0,4.86,67.6a6.585,6.585,0,0,1-4.076,1.4A6.978,6.978,0,0,1,0,68.961a9.278,9.278,0,0,0,5.031,1.477A9.274,9.274,0,0,0,14.37,61.1l-.011-.425A6.554,6.554,0,0,0,16,58.979Z" transform="translate(-0.001 -57.441)"/>
    </g>
  </g>
</svg>
